<?xml version="1.0" encoding="utf-8"?>
<!-- Generator: Adobe Illustrator 16.0.0, SVG Export Plug-In . SVG Version: 6.00 Build 0)  -->
<!DOCTYPE svg PUBLIC "-//W3C//DTD SVG 1.1//EN" "http://www.w3.org/Graphics/SVG/1.1/DTD/svg11.dtd">
<svg version="1.1" id="Layer_1" xmlns="http://www.w3.org/2000/svg" xmlns:xlink="http://www.w3.org/1999/xlink" x="0px" y="0px"
	 width="422.173px" height="92.283px" viewBox="0 0 422.173 92.283" enable-background="new 0 0 422.173 92.283"
	 xml:space="preserve">
<g>
	<path d="M33.513,24.02c3.849,0,7.223,1.379,9.988,4.117c0.087,0.094,0.087,0.094,0.174,0.188l13.817-13.73
		c-0.087-0.087-0.174-0.181-0.262-0.274c-6.594-6.594-14.473-9.801-23.718-9.801c-9.165,0-17.132,3.207-23.611,9.801
		C3.307,20.907,0,28.779,0,38.031c0,9.245,3.307,17.118,9.901,23.711c6.479,6.588,14.446,9.795,23.611,9.795
		c9.245,0,17.124-3.207,23.718-9.795c0.088-0.094,0.175-0.188,0.262-0.281l-13.73-13.729c-0.087,0.094-0.174,0.188-0.261,0.274
		c-2.766,2.745-6.14,4.124-9.988,4.124c-3.856,0-7.23-1.379-9.969-4.124c-2.765-2.745-4.137-6.045-4.137-9.975
		c0-3.85,1.372-7.143,4.137-9.895C26.282,25.398,29.656,24.02,33.513,24.02z"/>
	<polygon points="92.136,28.137 78.947,28.137 78.947,6.534 59.447,6.534 59.447,69.248 78.947,69.248 78.947,47.638 92.136,47.638 
		92.136,69.248 111.637,69.248 111.637,6.534 92.136,6.534 	"/>
	<path d="M111.657,69.248h79.644L151.482,0.127L111.657,69.248z M145.344,49.747l6.139-10.531l6.045,10.531H145.344z"/>
	<rect x="191.348" y="6.534" width="19.414" height="62.714"/>
	<path d="M256.351,36.069L213.519,2.236v67.012h19.502V42.335l23.176,18.364c0.02-0.302,0.154-0.557,0.154-0.857V36.069z"/>
	<path fill="#FFFFFF" d="M275.873,24.193c0-5.958,0-11.909,0-17.867h-19.521v29.743v23.772c0,0.301-0.135,0.556-0.154,0.857
		c-0.193,3.172-1.238,5.957-3.414,8.301c-2.484,2.57-5.51,3.762-9.078,3.762v19.521c8.965,0,16.496-3.213,22.809-9.533
		c6.246-6.413,9.359-14.018,9.359-22.908C275.873,53.883,275.873,30.152,275.873,24.193z"/>
	<path fill="#FFFFFF" d="M354.626,2.383v66.75L314.8,0l-39.865,69.188h79.691h0.039h19.395V51.594l14.098,19.333l14.58-19.521
		v17.781h19.436V2.57l-33.9,38.393L354.626,2.383z M308.662,49.666l6.139-10.537l6.053,10.537H308.662z"/>
</g>
</svg>
